<?xml version="1.0" encoding="utf-8"?>
<!-- Generator: Adobe Illustrator 27.8.1, SVG Export Plug-In . SVG Version: 6.00 Build 0)  -->
<svg version="1.1" xmlns="http://www.w3.org/2000/svg" xmlns:xlink="http://www.w3.org/1999/xlink" x="0px" y="0px"
	 viewBox="0 0 100 100" style="enable-background:new 0 0 97.5403061 51.5403175;" xml:space="preserve">
<style type="text/css">
	.st0{display:none;}
	.st10{fill:#FFFFFF;}
</style>
<g id="Background" class="st0">
	<rect class="st1" width="100" height="100"/>
</g>
<g id="Logo">
	<g>
		<g>
			<path class="st10" d="M19.1967659,38.545536c-0.575182-5.5072746-2.6981831-9.4593906-6.3104105-11.746479
				c-0.1400967-0.0899143-0.1551895-0.2841682-0.0361319-0.3950157c4.4403343-4.1005516,7.1199646-6.5751381,13.4450245-8.3817635
				c0.2068653-0.0634956,0.3963795,0.1635303,0.2871017,0.3613243c-3.5448456,6.3974056-5.349493,13.4827938-6.8934059,20.1922073
				C19.6275215,38.8510323,19.2260532,38.826004,19.1967659,38.545536z M13.4254065,26.5534534
				c3.2782507,2.192852,5.3231287,5.7416477,6.0887365,10.5658245c1.4443054-6.1542416,3.1854782-12.5638542,6.3406849-18.4466152
				C20.1625671,20.3996983,17.5356693,22.7590523,13.4254065,26.5534534z"/>
			<path class="st10" d="M19.1957893,38.5245399c-0.1113243-5.5561028-1.9296455-10.2757893-5.403203-14.0281982
				c-0.1174822-0.1277885-0.0739927-0.3351994,0.0898418-0.4013634c4.5643549-1.8515472,7.8894796-3.0326881,14.4430494-4.7401924
				c0.2092056-0.0603485,0.394331,0.1741943,0.2783146,0.3701134c-3.6620312,6.1220169-6.3563099,12.6556511-8.7332115,18.4197617
				l-0.1933556,0.470211C19.5743999,38.865509,19.2002354,38.7945366,19.1957893,38.5245399z M14.4029245,24.4235897
				c3.1649714,3.537077,4.926652,7.8871365,5.2459803,12.9486179c2.2567883-5.4701691,4.8133736-11.58535,8.2146683-17.3797321
				C21.8773727,21.5705872,18.6411152,22.7126656,14.4029245,24.4235897z"/>
			<path class="st10" d="M19.1957893,38.505497c0.3183537-5.6913567-1.1034908-10.8734398-4.4754887-16.3084507
				c-0.1055508-0.1728172,0.0234632-0.3959217,0.2412052-0.3803692c4.5614262,0.5209923,8.5427856,0.5019493,15.3961544-1.1293831
				c0.2175846-0.0521317,0.3899307,0.1895065,0.2675724,0.3784142c-3.8214855,5.9445019-7.7704391,12.7190895-10.9704685,17.591156
				C19.5166798,38.868309,19.182497,38.7624855,19.1957893,38.505497z M15.4126682,22.3694077
				c3.0614586,5.0790577,4.4452171,9.961338,4.3192425,15.254261c3.0473385-4.7023048,6.500124-10.6156273,10.1404076-16.3094273
				C23.5609303,22.7653999,19.6879673,22.8235054,15.4126682,22.3694077z"/>
			<path class="st10" d="M19.1977425,38.4888954c0.7128754-5.7299309-0.3779202-11.4613247-3.5370321-18.583334
				c-0.1012573-0.2278309,0.1570539-0.4435043,0.3622961-0.3124962c4.9246998,3.1279011,9.8181496,3.8534813,16.3648834,2.4272251
				c0.2203865-0.0482769,0.38797,0.1977673,0.2597618,0.3857384c-4.8026333,6.9755249-9.1843758,12.4564323-13.0251122,16.2903862
				C19.4554653,38.8634911,19.1672153,38.7254944,19.1977425,38.4888954z M16.4370613,20.4329014
				c2.8261108,6.5824623,3.8680801,12.0106373,3.3368416,17.3997517c3.6014843-3.6850281,7.6697578-8.7909412,12.1061859-15.1951809
				C25.7903748,23.8576756,21.098093,23.1902008,16.4370613,20.4329014z"/>
			<path class="st10" d="M19.1996956,38.4737587c1.0947037-5.8642044,0.3437443-11.9061451-2.5917397-20.8533325
				c-0.0852108-0.2601223,0.2517147-0.4466438,0.4267483-0.2416973c4.7450142,5.4965343,10.2673569,7.3949547,17.3843937,5.974556
				c0.2237206-0.0430241,0.3856506,0.2100315,0.2499924,0.3930645
				c-4.6473598,6.3280697-10.0056438,11.6488228-15.0865898,14.9822922
				C19.4045811,38.8472557,19.1602421,38.6951523,19.1996956,38.4737587z M17.4409447,18.5754948
				c2.57514,8.1459255,3.2694607,13.885622,2.3524895,19.4114513c4.749897-3.2240906,9.7195168-8.1688728,14.0944252-14.0257549
				C27.2669067,25.1218243,21.9955349,23.3991833,17.4409447,18.5754948z"/>
			<path class="st10" d="M19.2026253,38.4605751c1.6806297-6.8983765,0.6171741-13.9608154-1.6435184-23.1194267
				c-0.067955-0.2797518,0.3128529-0.4331303,0.4579983-0.1874981c4.5877914,7.7235661,10.7907829,10.9339867,18.4312439,9.5326309
				c0.2345924-0.0353031,0.3793564,0.2236843,0.2421837,0.3999004c-4.8094673,6.156683-11.0593338,11.1371078-17.1490459,13.6644325
				C19.3508511,38.8280602,19.1539974,38.658268,19.2026253,38.4605751z M18.4077206,16.7176018
				c1.975544,8.3085213,2.8495483,14.9183273,1.3935261,21.3792076c5.7010498-2.4770279,11.5134239-7.1049175,16.0934029-12.8109226
				C28.7580853,26.3674202,22.8900471,23.4885387,18.4077206,16.7176018z"/>
			<path class="st10" d="M19.205555,38.4488564c2.0829639-7.0468121,1.3632526-14.357296-0.6933441-25.3830795
				c-0.0524216-0.2906036,0.3533936-0.4154758,0.4736233-0.1489248
				c4.5057621,9.9569454,11.2419453,14.4862022,19.4927464,13.1029129c0.2204628-0.0411968,0.3836136,0.2239895,0.2333908,0.4062462
				c-5.0330925,6.0751438-12.2145805,10.6869183-19.2085705,12.3368092
				C19.3232288,38.8078651,19.1513844,38.6384583,19.205555,38.4488564z M19.3383656,14.7996492
				c1.7714462,9.8915148,2.3183098,16.7596207,0.4667873,23.3747978
				c6.5652885-1.6586761,13.2575264-5.9379387,18.0962906-11.5633755
				C30.2863731,27.6066666,23.7669811,23.4411755,19.3383656,14.7996492z"/>
		</g>
	</g>
</g>
<g id="SafeArea">
</g>
</svg>
