<svg width="72" height="26" viewBox="0 0 72 26" fill="none" xmlns="http://www.w3.org/2000/svg">
<path d="M6.42661 25.7754C5.85143 20.2681 3.72842 16.316 0.116197 14.0289C-0.0238998 13.939 -0.0389925 13.7448 0.0800651 13.6339C4.5204 9.53335 7.20003 7.05877 13.5251 5.25214C13.732 5.18864 13.9215 5.41567 13.8122 5.61346C10.2673 12.0109 8.4627 19.0963 6.91879 25.8057C6.85736 26.0809 6.45589 26.0559 6.42661 25.7754ZM0.655248 13.7833C3.9335 15.9762 5.97838 19.525 6.74398 24.3491C8.18829 18.1949 9.92946 11.7853 13.0847 5.90253C7.39241 7.62956 4.76551 9.98891 0.655248 13.7833Z" fill="#BE21CC"/>
<path d="M6.42569 25.7544C6.31436 20.1983 4.49604 15.4786 1.02249 11.7262C0.905004 11.5984 0.948493 11.391 1.11233 11.3248C5.67668 9.47325 9.00181 8.29211 15.5554 6.58461C15.7646 6.52426 15.9497 6.7588 15.8337 6.95472C12.1717 13.0767 9.47738 19.6104 7.10048 25.3745L6.90712 25.8447C6.8043 26.0953 6.43013 26.0244 6.42569 25.7544ZM1.63282 11.6534C4.7978 15.1905 6.55948 19.5405 6.8788 24.602C9.13559 19.1319 11.6922 13.0167 15.0935 7.2223C9.10727 8.80041 5.87101 9.94249 1.63282 11.6534Z" fill="#AC37D6"/>
<path d="M6.42557 25.7353C6.74393 20.044 5.32208 14.8619 1.95008 9.42687C1.84453 9.25405 1.97355 9.03094 2.19129 9.0465C6.75272 9.56749 10.7341 9.54845 17.5874 7.91711C17.805 7.86498 17.9774 8.10662 17.855 8.29553C14.0335 14.24 10.0846 21.0146 6.88455 25.8867C6.74646 26.0981 6.41228 25.9923 6.42557 25.7353ZM2.64245 9.59923C5.70391 14.6783 7.08767 19.5606 6.96169 24.8535C10.009 20.1512 13.4618 14.2379 17.1021 8.54406C10.7907 9.99522 6.91775 10.0533 2.64245 9.59923Z" fill="#9846E0"/>
<path d="M6.42741 25.7187C7.14029 19.9888 6.04949 14.2574 2.89038 7.13541C2.78912 6.90757 3.04744 6.6919 3.25268 6.82291C8.17738 9.95081 13.0708 10.6764 19.6176 9.25013C19.8379 9.20186 20.0055 9.4479 19.8773 9.63587C15.0747 16.6114 10.6929 22.0923 6.85221 25.9263C6.68514 26.0933 6.39689 25.9553 6.42741 25.7187ZM3.66673 7.66275C6.49284 14.2452 7.53481 19.6734 7.00357 25.0625C10.6051 21.3775 14.6733 16.2716 19.1098 9.86732C13.02 11.0875 8.32776 10.42 3.66673 7.66275Z" fill="#8351E7"/>
<path d="M6.42953 25.7036C7.52424 19.8394 6.77328 13.7975 3.83779 4.85028C3.75258 4.59016 4.08951 4.40364 4.26454 4.60858C9.00956 10.1051 14.5319 12.0035 21.6489 10.5831C21.8727 10.5401 22.0346 10.7932 21.8989 10.9762C17.2516 17.3043 11.8933 22.625 6.81234 25.9585C6.63442 26.0771 6.39008 25.925 6.42953 25.7036ZM4.67078 5.80535C7.24592 13.9513 7.94024 19.691 7.02327 25.2168C11.7732 21.9927 16.7428 17.0479 21.1177 11.191C14.4967 12.3517 9.22537 10.629 4.67078 5.80535Z" fill="#6B59EF"/>
<path d="M6.43232 25.6904C8.11295 18.792 7.0495 11.7296 4.78881 2.57096C4.72085 2.29121 5.10166 2.13783 5.2468 2.38346C9.8346 10.107 16.0376 13.3175 23.678 11.9161C23.9126 11.8808 24.0574 12.1398 23.9202 12.316C19.1108 18.4727 12.8609 23.4531 6.77119 25.9804C6.58055 26.0579 6.3837 25.8881 6.43232 25.6904ZM5.63742 3.94742C7.61296 12.2559 8.48697 18.8657 7.03095 25.3266C12.732 22.8496 18.5444 18.2217 23.1243 12.5157C15.9878 13.5972 10.1197 10.7184 5.63742 3.94742Z" fill="#4E5EF7"/>
<path d="M6.4353 25.6787C8.51826 18.6319 7.79855 11.3214 5.74195 0.295619C5.68953 0.00501573 6.09535 -0.119856 6.21558 0.146695C10.7213 10.1036 17.4575 14.6329 25.7083 13.2496C25.9288 13.2084 26.0919 13.4736 25.9417 13.6559C20.9086 19.731 13.7271 24.3428 6.73314 25.9927C6.55297 26.0377 6.38113 25.8683 6.4353 25.6787ZM6.56811 2.02949C8.33955 11.921 8.88642 18.7891 7.03489 25.4043C13.6002 23.7456 20.2924 19.4663 25.1312 13.8409C17.5161 14.8365 10.9967 10.671 6.56811 2.02949Z" fill="#2D61FF"/>
<path d="M37.955 18.4055C34.699 18.4055 32.5496 16.4718 32.5496 12.9825C32.5496 9.57563 34.7296 7.57708 37.8326 7.57708C39.0317 7.57708 40.1824 7.86179 41.1038 8.6442L41.4983 7.6648C40.4466 6.88956 39.0616 6.61493 37.7451 6.61493C34.0782 6.61493 31.5 9.33001 31.5 12.9825C31.5 16.7828 33.8996 19.3851 37.7451 19.3851C39.319 19.3851 40.7354 19.012 41.9787 18.0669L41.5936 17.111C40.5475 18.0293 39.325 18.4055 37.955 18.4055ZM42.9606 15.7639H47.2638L47.6443 14.8194H43.341L42.9606 15.7639ZM61.4429 12.0729V10.7259H60.4633V19.1227H61.4429V14.242C61.4429 12.5509 62.6321 11.4781 64.2069 11.4781C64.4221 11.4781 64.6343 11.4988 64.842 11.5363L65.2389 10.551C64.9458 10.4807 64.6132 10.4635 64.3118 10.4635C62.8918 10.4635 62.0373 11.1271 61.4429 12.0729ZM48.115 19.1227H49.217L50.5465 15.764H49.468L48.115 19.1227ZM53.048 6.87737L49.8486 14.8193H50.9139L53.4504 8.3818L56.1344 14.8193H53.4504L53.0699 15.764H56.5283L57.9287 19.1227H59.0657L53.9227 6.87737H53.048ZM71.6597 18.1905C71.366 18.3325 71.0024 18.4229 70.5918 18.4229C69.3825 18.4229 69.0785 17.6302 69.0785 16.4112V11.6355H71.4236L71.7901 10.7259H69.0785V8.22433H68.0989V16.7611C68.0989 18.5444 69.0493 19.3851 70.4956 19.3851C71.0256 19.3851 71.5591 19.2498 72 19.0352L71.6597 18.1905ZM66.0173 11.6355H67.2776L67.6441 10.7259H66.3837L66.0173 11.6355Z" fill="#121419"/>
</svg>
