<svg width="41" height="14" viewBox="0 0 41 14" fill="none" xmlns="http://www.w3.org/2000/svg">
<path d="M6.955 12.4055C3.699 12.4055 1.5496 10.4718 1.5496 6.9825C1.5496 3.57563 3.7296 1.57708 6.8326 1.57708C8.0317 1.57708 9.1824 1.86179 10.1038 2.6442L10.4983 1.6648C9.4466 0.889559 8.0616 0.614929 6.7451 0.614929C3.0782 0.614929 0.5 3.33001 0.5 6.9825C0.5 10.7828 2.8996 13.3851 6.7451 13.3851C8.319 13.3851 9.7354 13.012 10.9787 12.0669L10.5936 11.111C9.5475 12.0293 8.325 12.4055 6.955 12.4055ZM11.9606 9.7639H16.2638L16.6443 8.8194H12.341L11.9606 9.7639ZM30.4429 6.0729V4.7259H29.4633V13.1227H30.4429V8.242C30.4429 6.5509 31.6321 5.4781 33.2069 5.4781C33.4221 5.4781 33.6343 5.4988 33.842 5.5363L34.2389 4.551C33.9458 4.4807 33.6132 4.4635 33.3118 4.4635C31.8918 4.4635 31.0373 5.1271 30.4429 6.0729ZM17.115 13.1227H18.217L19.5465 9.764H18.468L17.115 13.1227ZM22.048 0.877369L18.8486 8.8193H19.9139L22.4504 2.3818L25.1344 8.8193H22.4504L22.0699 9.764H25.5283L26.9287 13.1227H28.0657L22.9227 0.877369H22.048ZM40.6597 12.1905C40.366 12.3325 40.0024 12.4229 39.5918 12.4229C38.3825 12.4229 38.0785 11.6302 38.0785 10.4112V5.6355H40.4236L40.7901 4.7259H38.0785V2.22433H37.0989V10.7611C37.0989 12.5444 38.0493 13.3851 39.4956 13.3851C40.0256 13.3851 40.5591 13.2498 41 13.0352L40.6597 12.1905ZM35.0173 5.6355H36.2776L36.6441 4.7259H35.3837L35.0173 5.6355Z" fill="white"/>
</svg>
